<?xml version="1.0" encoding="UTF-8" standalone="no"?>

<svg
   width="3.19558mm"
   height="2.6653278mm"
   viewBox="0 0 3.19558 2.6653278"
   version="1.1"
   id="svg6908"
   xmlns="http://www.w3.org/2000/svg"
   xmlns:svg="http://www.w3.org/2000/svg">
  <defs
     id="defs6905" />
  <g
     id="layer1"
     transform="translate(-89.117688,-155.86608)">
    <path
       d="m 92.007636,157.17406 -0.324597,0.5992 c 0.169026,-0.004 0.337846,0.0112 0.50321,0.0446 z"
       style="display:inline;fill:#a5c500;fill-opacity:1;stroke:none;stroke-width:0.655884;stroke-linecap:butt;stroke-linejoin:miter;stroke-miterlimit:4;stroke-dasharray:none;stroke-opacity:1;paint-order:stroke markers fill"
       id="path56949-6-2-9-2-3" />
    <path
       d="m 89.517962,157.99836 1.237793,0.009 c -0.144132,-0.26223 -0.257687,-0.53979 -0.338476,-0.82734 z"
       style="display:inline;fill:#cccccc;fill-opacity:1;stroke:none;stroke-width:1.17901;stroke-linecap:butt;stroke-linejoin:miter;stroke-miterlimit:4;stroke-dasharray:none;stroke-opacity:1;paint-order:stroke markers fill"
       id="path56949-6-2-2-9-6" />
    <path
       d="m 92.313688,157.15296 c -0.14801,-0.19036 -0.273032,-0.39653 -0.372242,-0.61386 -0.09669,-0.21688 -0.167189,-0.44287 -0.209659,-0.67302 l -1.306511,1.26622 z"
       style="display:inline;fill:#cccccc;fill-opacity:1;stroke:none;stroke-width:3.17263;stroke-linecap:butt;stroke-linejoin:bevel;stroke-miterlimit:4;stroke-dasharray:none;stroke-opacity:1;paint-order:stroke markers fill"
       id="path56970-6-3-5-9-5" />
    <path
       d="m 89.117688,156.27942 c 0.156386,0.20954 0.28811,0.43619 0.392197,0.67483 0.101411,0.23815 0.174782,0.48603 0.218216,0.73823 l 1.404565,-1.37487 z"
       style="display:inline;fill:#999999;fill-opacity:1;stroke:none;stroke-width:3.42855;stroke-linecap:butt;stroke-linejoin:bevel;stroke-miterlimit:4;stroke-dasharray:none;stroke-opacity:1;paint-order:stroke markers fill"
       id="path56970-6-3-5-9-4-3" />
    <rect
       style="display:inline;fill:#999999;fill-opacity:1;stroke:#cccccc;stroke-width:0;stroke-miterlimit:4;stroke-dasharray:none;stroke-opacity:1;paint-order:stroke fill markers"
       id="rect68579-4-5"
       width="0.32508451"
       height="1.0431377"
       x="19.704649"
       y="180.36432"
       transform="matrix(0.9184527,-0.39553083,0.40191007,0.91567914,0,0)" />
    <rect
       style="display:inline;fill:#999999;fill-opacity:1;stroke:#cccccc;stroke-width:0;stroke-miterlimit:4;stroke-dasharray:none;stroke-opacity:1;paint-order:stroke fill markers"
       id="rect68579-2-7-6"
       width="0.32407552"
       height="0.79348439"
       x="113.85333"
       y="148.95245"
       transform="matrix(0.99577956,0.09177728,-0.14996424,0.98869142,0,0)" />
  </g>
</svg>
